<svg width="261" height="265" viewBox="0 0 261 265" fill="none" xmlns="http://www.w3.org/2000/svg">
<path d="M241.3 132.618C241.482 194.4 191.176 245.144 130.262 245C69.5848 244.859 19.5914 194.143 19.6982 132.281C19.805 70.6679 69.7707 19.9118 130.693 20.0001C191.497 20.0884 241.609 70.8847 241.3 132.618ZM29.0371 132.402C28.8353 189.084 74.3946 235.419 130.282 235.552C186.323 235.684 231.95 189.381 232.048 132.695C232.147 75.8154 186.521 29.5201 130.669 29.4439C74.7625 29.3636 28.9461 75.5825 29.0371 132.402Z" fill="#FCEE21" fill-opacity="0.15"/>
<path d="M130.543 38.1943C180.365 37.7933 223.515 79.9495 223.385 132.566C223.251 185.675 180.716 226.849 130.445 226.808C79.3604 226.768 37.4694 184.083 37.6154 132.201C37.7653 80.0939 80.0548 37.9136 130.543 38.1943ZM134.824 211.111C134.828 211.111 134.836 211.111 134.84 211.111C134.84 212.579 134.907 214.055 134.821 215.518C134.742 216.866 135.203 217.179 136.529 217.091C147.024 216.413 156.944 213.625 166.413 209.025C167.782 208.359 167.743 207.718 167.068 206.579C165.644 204.18 164.291 201.734 162.957 199.283C161.994 197.514 162.294 195.766 163.387 194.19C164.496 192.585 166.177 192.301 167.964 192.537C169.641 192.758 170.58 194.021 171.373 195.329C172.754 197.599 174.048 199.925 175.327 202.259C175.859 203.226 176.36 203.434 177.331 202.748C185.976 196.604 193.398 189.236 199.269 180.289C199.983 179.202 199.699 178.684 198.681 178.123C196.317 176.815 193.95 175.5 191.669 174.048C189.069 172.396 188.363 169.676 189.76 167.346C191.121 165.08 193.946 164.483 196.503 165.95C198.732 167.23 200.973 168.493 203.159 169.849C204.355 170.591 205.057 170.37 205.574 169.063C206.359 167.081 207.251 165.148 208.028 163.163C211.035 155.479 212.696 147.477 213.442 139.259C213.588 137.639 213.106 136.961 211.402 137.033C208.715 137.15 206.016 137.106 203.325 137.037C200.977 136.981 199.375 135.489 199.001 133.171C198.547 130.368 200.504 127.993 203.704 127.769C206.253 127.592 208.829 127.624 211.386 127.713C213.071 127.769 213.647 127.067 213.426 125.455C213.158 123.473 212.941 121.484 212.672 119.503C211.556 111.233 209.015 103.408 205.578 95.8518C204.935 94.4361 204.335 94.3077 203.076 95.1259C200.973 96.4895 198.776 97.7008 196.586 98.912C193.717 100.496 191.089 99.8946 189.752 97.416C188.446 95.0016 189.353 92.3264 192.088 90.6821C194.12 89.4548 196.156 88.2235 198.255 87.1246C199.758 86.3385 200.046 85.6407 198.981 84.1006C193.027 75.4776 185.747 68.2504 177.276 62.2103C176.238 61.4683 175.768 61.5886 175.181 62.6916C173.871 65.1581 172.521 67.6086 171.038 69.9709C169.483 72.4495 167.238 73.1233 164.95 72.0204C162.46 70.8212 161.635 68.0338 163.075 65.1822C164.152 63.0485 165.411 61.0031 166.603 58.9295C167.897 56.6796 167.917 56.6595 165.53 55.5004C156.419 51.0806 146.78 48.6823 136.762 47.6996C135.286 47.5553 134.765 48.0847 134.813 49.5887C134.899 52.1916 134.856 54.7985 134.828 57.4015C134.797 60.3974 133.041 62.4068 130.417 62.5071C127.778 62.6113 125.82 60.7544 125.607 57.7664C125.473 55.9055 125.556 54.0285 125.556 52.1595C125.552 47.7197 125.544 47.6234 121.232 48.0686C111.873 49.0352 102.944 51.59 94.4644 55.7691C93.036 56.475 92.8466 57.209 93.6437 58.5525C95.0365 60.8948 96.3543 63.2851 97.6169 65.6996C98.5955 67.5766 98.2522 69.626 96.8751 71.0658C95.4823 72.5177 93.4779 72.9549 91.8247 72.1006C90.495 71.4148 89.5678 70.2918 88.8418 68.9923C87.6384 66.8466 86.4073 64.7169 85.2591 62.5391C84.7699 61.6087 84.3201 61.4683 83.4402 62.0779C74.5901 68.1982 67.2157 75.8105 61.1117 84.7262C60.4528 85.6888 60.6028 86.158 61.5971 86.7155C64.1775 88.1714 66.8014 89.5912 69.2122 91.3077C71.6427 93.0363 72.0057 95.5831 70.5063 97.7689C69.003 99.9588 66.5962 100.432 64.0631 98.9922C62.0587 97.8532 60.0701 96.674 58.0815 95.5069C55.8285 94.1874 55.7575 94.1834 54.6251 96.6018C50.3441 105.746 48.0358 115.412 47.0968 125.471C46.9311 127.227 47.302 127.725 48.971 127.717C51.7921 127.705 54.6251 127.444 57.4304 127.881C60.3108 128.33 61.6996 130.147 61.4826 133.015C61.3051 135.377 59.3914 137.021 56.7163 137.054C54.0214 137.086 51.3265 137.114 48.6356 137.046C47.1915 137.009 46.8048 137.539 47.0613 138.971C47.3809 140.735 47.4479 142.548 47.6886 144.333C48.8447 152.924 51.216 161.15 54.8973 168.987C55.5129 170.298 56.0929 170.667 57.4186 169.817C59.5808 168.425 61.8338 167.178 64.0907 165.942C66.7816 164.471 69.4529 165.092 70.7865 167.414C72.1122 169.72 71.2876 172.476 68.7111 174.08C66.6396 175.372 64.5602 176.655 62.402 177.79C60.8158 178.624 60.5396 179.35 61.6444 180.954C67.5195 189.477 74.7558 196.56 83.089 202.556C84.3122 203.438 84.8646 203.141 85.4998 201.95C86.7822 199.544 88.0724 197.133 89.5205 194.831C91.1066 192.313 93.8528 191.747 96.2044 193.259C98.2325 194.567 98.773 197.398 97.4157 199.837C96.1255 202.163 94.8392 204.493 93.4582 206.763C92.7796 207.878 92.8979 208.436 94.1132 209.025C103.405 213.505 113.123 216.292 123.406 217.05C125.158 217.179 125.686 216.742 125.655 214.933C125.6 211.941 125.3 208.917 125.915 205.945C126.393 203.639 128.436 202.175 130.701 202.408C133.112 202.652 134.702 204.285 134.809 206.711C134.876 208.171 134.824 209.639 134.824 211.111Z" fill="#FCEE21" fill-opacity="0.15"/>
<path d="M135.256 106.48C135.256 113.764 135.288 121.053 135.232 128.337C135.22 129.923 135.676 131.103 136.807 132.232C143.332 138.761 149.81 145.346 156.28 151.935C158.494 154.192 158.847 156.023 157.617 158.192C156.078 160.906 153.142 161.528 150.723 159.549C149.548 158.585 148.521 157.437 147.446 156.352C142.21 151.068 136.954 145.8 131.773 140.459C130.654 139.307 129.928 139.214 128.699 140.343C116.362 151.638 103.977 162.878 91.6007 174.129C90.962 174.711 90.3194 175.285 89.6371 175.815C87.3046 177.626 84.8055 177.381 82.9649 175.189C81.3543 173.27 81.6479 170.495 83.7463 168.559C87.3086 165.279 90.9105 162.034 94.5005 158.782C103.105 150.98 111.713 143.186 120.321 135.384C120.666 135.071 120.955 134.677 121.344 134.444C125.224 132.115 125.966 128.642 125.874 124.265C125.605 111.371 125.771 98.4696 125.791 85.5679C125.791 84.3713 125.862 83.1506 126.1 81.9861C126.533 79.882 128.473 78.3963 130.555 78.4043C132.654 78.4123 134.51 79.89 134.947 82.0463C135.169 83.1506 135.244 84.299 135.248 85.4313C135.268 92.4464 135.256 99.4614 135.256 106.48Z" fill="#FCEE21" fill-opacity="0.15"/>
</svg>
